[IMG]http://img269.imageshack.us/img269/4758/thevow.jpg[/IMG]
[code]
The.Vow.2012.R5.LiNE.XViD.AC3-26K

Imdb: 
http://www.imdb.com/title/tt1606389/

Plot:
A car accident puts Paige (McAdams) in a coma, and when she wakes up with severe memory loss, her husband Leo (Tatum) works to win her heart again.

Sources:
RUSSIN DVD-THNXS FINALLY TOOK HOURS TO DOWNLOAD :(..
AUDIO-INSPIRAL LINE :)

Notes:
ENCODED OF VOBS AND FILTERED THE VIDEO TO MAKE IT LOOK NICE :).. THEN MUXED INSPIRALS LINE ONTO OUR ENCODE. AUDIO HAS A TINY BIT OF STATIC.. REMOVED AS MUCH AS I COULD... BUT IS STILL THERE.. AUDACTIY RULES ;0)

ENJOY. :)

Greetz:
Xtreme Encode|FYA|ILLUMANTI|CM8|RX|VISION|HDSCENE|NIGHTMAREZ|xTriLL|DTRG|CRYS|REMIXHD|BIDA|RX|REFILL|INSPiRAL|SIC|HOPE|Anonymous|GooN|P76|MIRAGE|ESCA|KoDeKinG

To all the people who have helped me :P you know who you are

Anything to offer email us @: 26k@hushmail.me

Video
ID                                       : 0
Format                                   : MPEG-4 Visual
Format profile                           : Advanced Simple@L5
Format settings, BVOP                    : 2
Format settings, QPel                    : No
Format settings, GMC                     : No warppoints
Format settings, Matrix                  : Default (H.263)
Muxing mode                              : Packed bitstream
Codec ID                                 : XVID
Codec ID/Hint                            : XviD
Duration                                 : 1h 39mn
Bit rate                                 : 1 995 Kbps
Width                                    : 720 pixels
Height                                   : 304 pixels
Display aspect ratio                     : 2.35:1
Frame rate                               : 25.000 fps
Color space                              : YUV
Chroma subsampling                       : 4:2:0
Bit depth                                : 8 bits
Scan type                                : Progressive
Compression mode                         : Lossy
Bits/(Pixel*Frame)                       : 0.365
Stream size                              : 1.39 GiB (86%)
Writing library                          : XviD 64

Audio
ID                                       : 1
Format                                   : AC-3
Format/Info                              : Audio Coding 3
Mode extension                           : CM (complete main)
Codec ID                                 : 2000
Duration                                 : 1h 39mn
Bit rate mode                            : Constant
Bit rate                                 : 320 Kbps
Channel(s)                               : 2 channels
Channel positions                        : Front: L R
Sampling rate                            : 44.1 KHz
Bit depth                                : 16 bits
Compression mode                         : Lossy
Stream size                              : 228 MiB (14%)
Alignment                                : Aligned on interleaves
Interleave, duration                     : 70 ms (1.75 video frames)
Interleave, preload duration             : 208 ms
Title                                    : audio


[/code]
Screens:
[IMG]http://i.imgur.com/wyVX4.png[/IMG]
[IMG]http://i.imgur.com/d1ABN.png[/IMG]
[IMG]http://img850.imageshack.us/img850/8867/vlcsnap2012032318h43m50.png[/IMG]
[IMG]http://img51.imageshack.us/img51/4958/vlcsnap2012032318h43m33.png[/IMG]
[IMG]http://img856.imageshack.us/img856/1589/vlcsnap2012032318h42m25.png[/IMG]

[img]http://img851.imageshack.us/img851/5503/26ks.jpg[/img]
Thank you smallz for banner!